<svg xmlns="http://www.w3.org/2000/svg" width="35.481" height="28.828" viewBox="0 0 35.481 28.828">
    <path id="twitter"
        d="M35.481,51.413a15.166,15.166,0,0,1-4.191,1.149,7.233,7.233,0,0,0,3.2-4.02A14.537,14.537,0,0,1,29.877,50.3a7.273,7.273,0,0,0-12.582,4.974,7.49,7.49,0,0,0,.169,1.659A20.589,20.589,0,0,1,2.47,49.326a7.276,7.276,0,0,0,2.235,9.722,7.183,7.183,0,0,1-3.286-.9v.08a7.307,7.307,0,0,0,5.828,7.147,7.26,7.26,0,0,1-1.907.24,6.432,6.432,0,0,1-1.377-.124,7.343,7.343,0,0,0,6.8,5.067,14.616,14.616,0,0,1-9.019,3.1A13.625,13.625,0,0,1,0,73.564a20.478,20.478,0,0,0,11.159,3.264c13.385,0,20.7-11.088,20.7-20.7,0-.322-.011-.632-.027-.94A14.511,14.511,0,0,0,35.481,51.413Z"
        transform="translate(0 -48)" fill="#03a9f4" />
</svg>